<svg width="32" height="36" viewBox="0 0 32 36" fill="none" xmlns="http://www.w3.org/2000/svg">
<g id="Threejs" clip-path="url(#clip0_82_137)">
<path id="Vector" d="M0.0108862 0.492926C-0.0557332 0.19626 0.194404 -0.0685868 0.461362 0.0159582L8.24003 2.47941C8.30967 2.47914 8.37853 2.50096 8.43736 2.54194L23.7786 7.40042C23.8422 7.40187 23.9048 7.42168 23.9594 7.45762L31.7386 9.92136C32.0059 10.006 32.0895 10.3773 31.889 10.5893L8.41404 35.4285C8.21368 35.6405 7.87981 35.5344 7.81313 35.2375L3.91908 17.8968C3.91387 17.879 3.90978 17.8608 3.90685 17.8424L0.0108862 0.492926ZM6.67413 26.8531L8.36412 34.3789L13.4534 28.9937L6.67413 26.8531ZM11.9163 20.9015L6.98902 26.1259L13.553 28.1988L11.9163 20.9015ZM12.6477 20.8457L14.2793 28.1199L19.1931 22.9204L12.6477 20.8457ZM4.764 18.3468L6.40263 25.6443L11.3241 20.4262L4.764 18.3468ZM17.727 14.7335L12.7206 20.0419L19.3923 22.1567L17.727 14.7335ZM18.4285 14.5448L20.0938 21.9676L25.1139 16.6558L18.4285 14.5448ZM9.98088 12.2704L4.96376 17.5833L11.6476 19.7018L9.98088 12.2704ZM10.6797 12.07L12.3164 19.367L17.2437 14.1426L10.6797 12.07ZM2.798 9.59186L4.46375 17.0101L9.47725 11.701L2.798 9.59186ZM23.5719 8.56193L18.6446 13.7863L25.2087 15.8592L23.5719 8.56193ZM24.2761 8.38461L25.9361 15.7857L30.9371 10.4942L24.2761 8.38461ZM15.7937 6.11508L10.8885 11.3094L17.4216 13.3723L15.7937 6.11508ZM16.4937 5.91993L18.1327 13.2259L23.0615 7.99989L16.4937 5.91993ZM8.04219 3.64101L3.11489 8.86541L9.67891 10.9383L8.04219 3.64101ZM8.747 3.46651L10.3796 10.7454L15.295 5.54029L8.747 3.46651ZM0.861769 0.969325L2.52712 8.38544L7.52987 3.0811L0.861769 0.969325Z" fill="white"/>
</g>
<defs>
<clipPath id="clip0_82_137">
<rect width="32" height="35.2" fill="white"/>
</clipPath>
</defs>
</svg>
