<svg width="32" height="32" viewBox="0 0 32 32" fill="none" xmlns="http://www.w3.org/2000/svg">
<g id="git">
<path id="bg" d="M2.58536 17.4132C1.80488 16.6327 1.80488 15.3673 2.58536 14.5868L14.5868 2.58536C15.3673 1.80488 16.6327 1.80488 17.4132 2.58536L29.4146 14.5868C30.1951 15.3673 30.1951 16.6327 29.4146 17.4132L17.4132 29.4146C16.6327 30.1951 15.3673 30.1951 14.5868 29.4146L2.58536 17.4132Z" fill="#EE513B"/>
<path id="git_2" d="M12.1493 5.06152L10.934 6.27686L14.0729 9.41577C13.9459 9.68819 13.875 9.99201 13.875 10.3124C13.875 11.222 14.4465 11.9981 15.25 12.3012V19.9798C14.4465 20.2829 13.875 21.059 13.875 21.9686C13.875 23.1422 14.8264 24.0936 16 24.0936C17.1736 24.0936 18.125 23.1422 18.125 21.9686C18.125 21.144 17.6553 20.429 16.9688 20.0768V12.3117L19.9693 15.3122C19.8485 15.5791 19.7812 15.8754 19.7812 16.1874C19.7812 17.361 20.7326 18.3124 21.9062 18.3124C23.0799 18.3124 24.0312 17.361 24.0312 16.1874C24.0312 15.0138 23.0799 14.0624 21.9062 14.0624C21.6782 14.0624 21.4585 14.0983 21.2526 14.1648L18.0301 10.9423C18.0918 10.7433 18.125 10.5317 18.125 10.3124C18.125 9.13878 17.1736 8.18738 16 8.18738C15.7807 8.18738 15.5691 8.22061 15.3701 8.2823L12.1493 5.06152Z" fill="white"/>
</g>
</svg>
