<svg width="33" height="32" viewBox="0 0 33 32" fill="none" xmlns="http://www.w3.org/2000/svg">
<g id="react">
<g id="react_2">
<path d="M19.2626 15.9759C19.2626 14.5415 18.0258 13.3785 16.5 13.3785C14.9743 13.3785 13.7374 14.5415 13.7374 15.9759C13.7374 17.4105 14.9743 18.5734 16.5 18.5734C18.0258 18.5734 19.2626 17.4105 19.2626 15.9759Z" fill="#53C1DE"/>
<path fill-rule="evenodd" clip-rule="evenodd" d="M25.4723 11.1537C26.0557 8.92478 26.789 4.79148 24.2038 3.39016C21.6308 1.99495 18.2825 4.66843 16.5144 6.27318C14.7514 4.68442 11.309 2.02237 8.72606 3.42814C6.15399 4.82803 6.94716 8.8928 7.54349 11.1357C5.1442 11.7764 1.03125 13.1564 1.03125 15.9759C1.03125 18.7874 5.13992 20.2888 7.52501 20.9289C6.92647 23.1842 6.17302 27.1909 8.74837 28.5877C11.3409 29.9932 14.7727 27.3945 16.5571 25.7722C18.3365 27.3864 21.6527 30.0021 24.2263 28.6014C26.808 27.1963 26.1356 23.1184 25.5392 20.8625C27.8512 20.221 31.9688 18.7523 31.9688 15.9759C31.9688 13.1835 27.8338 11.7923 25.4723 11.1537ZM25.1792 19.667C24.7877 18.5016 24.2592 17.2623 23.6126 15.9821C24.2297 14.7321 24.7377 13.5088 25.1183 12.3509C26.8495 12.8228 30.6472 13.9013 30.6472 15.9759C30.6472 18.07 27.0029 19.1587 25.1792 19.667ZM23.564 27.526C21.6439 28.571 18.7916 26.0696 17.4775 24.8809C18.3492 23.9844 19.2204 22.9422 20.0707 21.7849C21.5664 21.6602 22.9794 21.4562 24.2608 21.1777C24.6805 22.7734 25.4927 26.4763 23.564 27.526ZM9.40873 27.5111C7.48835 26.47 8.3661 22.8946 8.80643 21.2333C10.0736 21.4969 11.4763 21.6865 12.9756 21.8008C13.8315 22.9332 14.7279 23.9741 15.6313 24.8857C14.5151 25.9008 11.3381 28.557 9.40873 27.5111ZM2.35279 15.9759C2.35279 13.874 6.12776 12.8033 7.89839 12.3326C8.28559 13.5165 8.79342 14.7544 9.40627 16.0062C8.78548 17.2766 8.27039 18.5341 7.87963 19.732C6.19131 19.2776 2.35279 18.0791 2.35279 15.9759ZM9.38819 4.50354C11.3164 3.45416 14.3083 6.00983 15.5883 7.16013C14.6895 8.06754 13.8013 9.1006 12.9529 10.2265C11.4978 10.3533 10.105 10.5569 8.8245 10.8297C8.3441 9.02071 7.46204 5.55179 9.38819 4.50354ZM21.0161 11.5771C22.0033 11.6942 22.949 11.85 23.837 12.0406C23.5705 12.844 23.2382 13.6841 22.8468 14.5453C22.2795 13.5333 21.6706 12.5416 21.0161 11.5771ZM16.5148 8.0481C17.1243 8.66897 17.7349 9.3623 18.3354 10.1145C17.1172 10.0603 15.897 10.0601 14.6789 10.1137C15.2799 9.36848 15.8956 8.67618 16.5148 8.0481ZM10.1645 14.5444C9.77964 13.6862 9.45035 12.8424 9.18145 12.0275C10.0642 11.8418 11.0055 11.69 11.9862 11.5748C11.3299 12.5372 10.722 13.5285 10.1645 14.5444ZM12.0144 20.4657C11.0012 20.3594 10.0457 20.2153 9.16324 20.0347C9.43639 19.2055 9.77293 18.3435 10.166 17.4668C10.7312 18.4933 11.3484 19.4942 12.0144 20.4657ZM16.5513 23.9915C15.9249 23.356 15.3002 22.6531 14.6899 21.8971C15.9151 21.9423 17.1426 21.9424 18.3676 21.891C17.7651 22.6608 17.1568 23.3647 16.5513 23.9915ZM22.8594 17.4222C23.2729 18.3084 23.6215 19.1657 23.8984 19.9809C23.0013 20.1734 22.0329 20.3284 21.0124 20.4435C21.6717 19.4607 22.2903 18.4536 22.8594 17.4222ZM19.3331 20.5941C17.4592 20.72 15.5735 20.7186 13.6989 20.6044C12.6337 19.1415 11.6856 17.603 10.867 16.0058C11.6815 14.4119 12.6229 12.8764 13.683 11.4158C15.559 11.2825 17.4465 11.2821 19.3224 11.4166C20.3734 12.8771 21.3134 14.4086 22.1468 15.9881C21.3232 17.5812 20.377 19.1198 19.3331 20.5941ZM23.5438 4.4666C25.4725 5.51254 24.614 9.22726 24.1926 10.8426C22.9091 10.5641 21.5153 10.3569 20.056 10.2281C19.2059 9.09004 18.3251 8.05518 17.4409 7.15949C18.7373 5.98441 21.6337 3.43089 23.5438 4.4666Z" fill="#53C1DE"/>
</g>
</g>
</svg>
